<?xml version="1.0" standalone="no"?>
<!DOCTYPE svg PUBLIC "-//W3C//DTD SVG 1.1//EN" "http://www.w3.org/Graphics/SVG/1.1/DTD/svg11.dtd" >
<svg>
<metadata>
Created by FontForge 20110222 at Mon Mar  7 08:22:07 2011
 By www-data
Generated by Fontographer 4.0.4
</metadata>
<defs>
<font id="PokemonSolid" horiz-adv-x="550" >
  <font-face 
    font-family="Pokemon  Solid"
    font-weight="5"
    font-stretch="normal"
    units-per-em="1000"
    panose-1="0 0 0 0 0 0 0 0 0 0"
    ascent="800"
    descent="-200"
    x-height="568"
    cap-height="908"
    bbox="-277 -474 1348 1208"
    underline-thickness="50"
    underline-position="-75"
    unicode-range="U+0020-203A"
  />
    <missing-glyph />
    <glyph glyph-name="space" unicode=" " horiz-adv-x="500" 
 />
    <glyph glyph-name="exclam" unicode="!" horiz-adv-x="200" 
d="M80 204q62 0 95.5 -33.5t33.5 -63.5q0 -46 -24.5 -77t-38.5 -34l-38 -4q-100 0 -112 94q0 46 20 77q20 36 64 41zM8 340l-64 540l292 88l-60 -612z" />
    <glyph glyph-name="quotedbl" unicode="&#x22;" horiz-adv-x="500" 
d="M143 547l-104 14l-79 312l203 -29zM443 547l-104 14l-79 312l203 -29z" />
    <glyph glyph-name="numbersign" unicode="#" 
d="M504 912l-16 -136h80l-32 -152l-56 8l-12 -72l56 4l-20 -148h-56l-20 -72l-124 -8l4 84h-104l-16 -92l-116 -20l16 116l-104 -4l12 140l116 4l4 60l-104 8l12 148h128l4 132l132 -4l-20 -128h92l36 132h108zM252 628l-12 -64h92l12 64h-92z" />
    <glyph glyph-name="dollar" unicode="$" 
d="M323 -40l-2 -22q0 -43 7 -98l-184 24l11 120q-67 16 -160 46l-91 30q13 28 47 123.5t37 96.5q25 -20 84 -46t85 -35t43 -11l105 -25l33 -4q22 0 39 12.5t17 30.5q0 40 -136 111.5t-216 179t-80 185.5q0 42 14.5 71.5t28 46t54.5 46.5t169 30l12 104l168 -16l-7 -114
q36 -9 97 -26.5t142 -43.5l-46 -120q-14 -39 -23 -62.5t-15 -37.5q-18 18 -99.5 53.5t-112.5 38.5q-15 0 -65 14.5t-73 14.5q-22 0 -38 -12t-16 -30q0 -33 57 -76.5t155 -92t155 -135t57 -170.5q0 -46 -35 -123.5t-218 -77.5z" />
    <glyph glyph-name="percent" unicode="%" horiz-adv-x="700" 
d="M776 856l-612 -1016l-252 -8l596 1012zM87 828l20 1q64 0 109.5 -36t58.5 -63.5t13 -53.5q0 -75 -39 -122t-64 -52t-54 -5q-101 0 -135.5 51t-40.5 96q0 70 33 123.5t99 60.5zM567 264l20 1q64 0 109.5 -36t58.5 -62.5t13 -54.5q0 -75 -40 -122.5t-65 -52t-52 -4.5
q-101 0 -135.5 50.5t-40.5 96.5q0 70 33 123.5t99 60.5z" />
    <glyph glyph-name="ampersand" unicode="&#x26;" horiz-adv-x="600" 
d="M200 12q-202 21 -237.5 113t-35.5 128q0 73 48 148.5t88 99.5t57 27q-98 118 -98 183q0 15 30 81.5t204 66.5l4 89h200l-24 -113q67 -16 102 -27t75 -24l75 -24l-46 -120q-14 -39 -23 -62.5t-15 -37.5q-12 18 -48 52q-34 20 -145.5 41t-167.5 21l-23 -3q-9 -2 -9 -11
q0 -26 35 -63.5t74.5 -62t77.5 -24.5l18 2l4 -144q-97 10 -196 52q-18 -4 -48 -37q-28 -33 -28 -51q0 -66 71 -104q45 -27 137 -27q102 0 236 35l32 -152l-257 -44l-15 -92h-164z" />
    <glyph glyph-name="quotesingle" unicode="'" horiz-adv-x="200" 
d="M193 547l-104 14l-79 312l203 -29z" />
    <glyph glyph-name="parenleft" unicode="(" horiz-adv-x="400" 
d="M380 56l-24 -232q-188 136 -270 276t-82 268v18.5t10 116.5t171.5 249.5t258.5 167.5l-28 -200q-83 -58 -143 -145t-69.5 -140.5t-9.5 -73.5q0 -156 186 -305z" />
    <glyph glyph-name="parenright" unicode=")" horiz-adv-x="400" 
d="M20 56q186 146 186 305q0 21 -13 103t-88.5 150.5t-91 82t-29.5 23.5l-28 200q94 -22 257 -167t181 -345l2 -40q0 -131 -81 -269t-271 -275z" />
    <glyph glyph-name="asterisk" unicode="*" horiz-adv-x="400" 
d="M112 932l152 -4v-144l96 84l84 -100l-144 -104l112 -172l-132 -36l-108 144l-104 -148l-104 92l116 132l-148 100l96 112l88 -84z" />
    <glyph glyph-name="plus" unicode="+" horiz-adv-x="450" 
d="M8 520l164 15l12 153h156l-16 -140l152 16l-16 -160l-164 -5l-20 -163h-152l20 158l-148 -6z" />
    <glyph glyph-name="comma" unicode="," horiz-adv-x="400" 
d="M346 92l-197 -259l-186 65l290 227z" />
    <glyph glyph-name="hyphen" unicode="-" horiz-adv-x="450" 
d="M8 520l468 44l-16 -160l-464 -16z" />
    <glyph glyph-name="period" unicode="." horiz-adv-x="200" 
d="M80 204q62 0 95.5 -33.5t33.5 -63.5q0 -46 -24.5 -77t-38.5 -34l-38 -4q-100 0 -112 94q0 46 20 77q20 36 64 41z" />
    <glyph glyph-name="slash" unicode="/" horiz-adv-x="700" 
d="M776 856l-612 -1016l-252 -8l596 1012z" />
    <glyph glyph-name="zero" unicode="0" 
d="M300 820q162 0 229 -118.5t67 -282.5v-23q0 -70 -44.5 -165t-118 -161t-165.5 -66q-184 0 -231 111t-58 166.5t-11 122.5q0 43 2.5 71t22.5 130.5t98 148.5t118 56t91 10zM280 560q-39 0 -64 -25q-44 -49 -44 -143q0 -73 38.5 -102.5t73.5 -29.5q77 9 96.5 53.5
t19.5 86.5q0 71 -32.5 115.5t-87.5 44.5z" />
    <glyph glyph-name="one" unicode="1" horiz-adv-x="250" 
d="M272 0l-220 -12l12 720l-128 -12l24 120l304 100z" />
    <glyph glyph-name="two" unicode="2" 
d="M332 320q-70 -20 -118 -93.5t-70 -158.5l480 84l-48 -152l-612 -104q0 284 55 394.5t135 142.5q43 0 90.5 24t119 90.5t71.5 109.5q0 10 -7 11l-27 3q-28 0 -73 -9l-72 -14q-53 -6 -131 -47t-81 -45q-4 4 -7 10t-8 20l-16 50q-9 26 -21.5 59t-31.5 81l221 68
q126 32 213 32q79 0 137.5 -28t79 -72.5t20.5 -73.5q0 -102 -90 -225.5t-209 -156.5z" />
    <glyph glyph-name="three" unicode="3" horiz-adv-x="600" 
d="M184 492l17 -2q42 0 83.5 27.5t74.5 65.5q30 38 30 57q0 8 -7 10.5t-13 2.5t-12 1q-54 0 -167.5 -21.5t-136 -34.5t-37.5 -34l-20 -24q-4 4 -7 10t-8 20l-16 50q-9 26 -21.5 59t-31.5 81l221 68q126 32 213 32q79 0 137 -28t76.5 -67t18.5 -54q0 -64 -98 -183
q18 -2 57.5 -26.5t87.5 -100.5t48 -148q0 -37 -32 -117.5t-140 -104t-162 -23.5q-13 0 -28 0.5t-35 3.5l-300 52l32 152q142 -35 236 -35q160 0 184 55t24 76q0 20 -28.5 52t-47.5 36q-46 -19 -96.5 -33t-99.5 -19z" />
    <glyph glyph-name="four" unicode="4" 
d="M-24 752l208 20l-28 -284l140 -28l28 340l244 32l-96 -964q-27 -11 -81 -11q-39 0 -67.5 2t-67.5 9l28 440l-336 52z" />
    <glyph glyph-name="five" unicode="5" horiz-adv-x="600" 
d="M44 344q-44 145 -86 262t-82 202l69 -1q255 0 425 38t226 63l16 -172q-49 -20 -105.5 -37t-138 -35t-164.5 -18q-40 0 -76 6l28 -148q144 36 244 36q50 0 80 -12q18 -2 57.5 -26.5t87.5 -100.5t48 -148q0 -37 -32 -117.5t-140 -104t-162 -23.5q-13 0 -28 0.5t-35 3.5
l-300 52l32 152q142 -35 236 -35q160 0 184 55t24 76q0 20 -28.5 52t-47.5 36q-59 -26 -332 -56z" />
    <glyph glyph-name="six" unicode="6" horiz-adv-x="600" 
d="M272 516q47 27 110 27q36 0 54 -15q18 -2 57.5 -26.5t87.5 -101.5t48 -147q0 -37 -30.5 -114t-104 -108t-105.5 -39t-68 -8l-51 -1q-151 0 -213.5 64t-80.5 117l-4 37q0 93 33.5 200.5t97 228.5t213 209.5t312.5 120.5l-124 -196q-92 -68 -157 -138t-75 -110zM420 308
q-12 39 -46 66q-36 25 -76 25q-31 0 -83 -38.5t-63 -80.5l-2 -20q0 -52 33.5 -85t85.5 -33l23 1q94 12 113.5 56.5t19.5 73.5q0 17 -5 35z" />
    <glyph glyph-name="seven" unicode="7" horiz-adv-x="700" 
d="M468 652l-544 44v192l848 -68l-372 -968l-236 -20z" />
    <glyph glyph-name="eight" unicode="8" horiz-adv-x="600" 
d="M304 -16l-14 -1h-20q-151 0 -227.5 77.5t-76.5 175.5q0 125 61 180t137 92q-156 60 -156 164q0 35 37.5 114.5t210.5 79.5l52 -2q33 0 54 -3t56.5 -10.5t60.5 -18.5t53.5 -35t43.5 -56t17 -47q0 -35 -57 -101l-56 -65q18 -2 57.5 -26.5t87.5 -100.5t48 -148
q0 -37 -29.5 -113.5t-136.5 -116t-203 -39.5zM272 365q-23 -5 -59.5 -29t-36.5 -44l-2 2q-2 -4 -6 -15l-8 -31q0 -55 120 -66l24 -1q113 0 130.5 53.5t17.5 77.5q0 20 -28.5 52t-47.5 36q-19 -8 -52.5 -19t-51.5 -16zM204 672q-6 -8 -6 -14q0 -11 39 -31l55 -27l58 29
q45 23 45 34q0 6 -20 23.5t-84 17.5q-61 0 -87 -32z" />
    <glyph glyph-name="nine" unicode="9" horiz-adv-x="600" 
d="M340 324q-26 -16 -79 -16q-50 0 -73 20q-69 12 -131 107.5t-62 167.5q0 37 36.5 129t140 116t148.5 24l14 1h20q151 0 213.5 -64t80.5 -117l4 -37q0 -69 -29.5 -181t-62.5 -174l-71 -137q-109 -208 -187 -304.5t-142 -138.5l-160 8q37 59 85 139t84 139l94 158
q32 58 51.5 98t25.5 62zM240 540q17 -47 64 -47q29 0 72 23q52 24 52 48h1q3 11 5 24l1 19q0 69 -83 69l-28 -2q-91 -11 -91 -94q0 -20 7 -40z" />
    <glyph glyph-name="colon" unicode=":" 
d="M280 196q62 0 95.5 -33.5t33.5 -63.5q0 -47 -25.5 -78.5t-37.5 -32.5q-8 -2 -19 -3t-19 -1q-99 0 -112 94q0 45 21 79.5t63 38.5zM180 496q62 0 95.5 -33.5t33.5 -63.5q0 -46 -24.5 -77t-38.5 -34l-38 -4q-100 0 -112 94q0 43 20.5 78t63.5 40z" />
    <glyph glyph-name="semicolon" unicode=";" horiz-adv-x="450" 
d="M180 496q62 0 95.5 -33.5t33.5 -63.5q0 -46 -24.5 -77t-38.5 -34l-38 -4q-100 0 -112 94q0 43 20.5 78t63.5 40zM346 92l-197 -259l-186 65l290 227z" />
    <glyph glyph-name="less" unicode="&#x3c;" horiz-adv-x="500" 
d="M4 524l588 232l-20 -168l-252 -76l232 -80l-24 -172z" />
    <glyph glyph-name="equal" unicode="=" horiz-adv-x="450" 
d="M8 604l468 44l-16 -160l-464 -16zM4 392l468 44l-16 -160l-464 -16z" />
    <glyph glyph-name="greater" unicode="&#x3e;" horiz-adv-x="500" 
d="M546 524l-524 -264l-24 172l232 80l-252 76l-20 168z" />
    <glyph glyph-name="question" unicode="?" 
d="M154 433q43 0 90.5 24t119 90.5t71.5 109.5q0 10 -7 11l-27 3q-28 0 -73 -9l-72 -14q-53 -6 -131 -47t-81 -45q-4 4 -7 10t-8 20l-16 50q-9 26 -21.5 59t-31.5 81l221 68q126 32 213 32q79 0 137 -27t76 -66t18 -53q0 -70 -84 -168.5t-180.5 -178t-155.5 -97.5zM280 196
q62 0 95.5 -33.5t33.5 -63.5q0 -47 -25.5 -78.5t-37.5 -32.5q-8 -2 -19 -3t-19 -1q-99 0 -112 94q0 45 21 79.5t63 38.5z" />
    <glyph glyph-name="at" unicode="@" horiz-adv-x="650" 
d="M336 564q-36 0 -71 -65.5t-42 -92.5t-7 -45q0 -99 72 -122t94 -29t50 -6l-32 -204q-157 0 -256 71t-141.5 148.5t-42.5 176.5l-1 43q0 256 125.5 318.5t215.5 62.5q79 0 156.5 -25.5t135 -72.5t78 -96t20.5 -120q0 -146 -48.5 -194.5t-75 -60t-58.5 -11.5
q-59 0 -124.5 24.5t-131.5 71.5l116 160q35 -19 63 -19q19 0 21 15q0 34 -63 60q-27 9 -53 12z" />
    <glyph glyph-name="A" unicode="A" 
d="M312 900l480 -1156l-204 -20l-228 532l-128 20l-200 -424l-252 -12zM240 392l116 -16l-48 188z" />
    <glyph glyph-name="B" unicode="B" horiz-adv-x="600" 
d="M668 424q50 -80 50 -149q0 -77 -58 -137t-127 -87t-113 -39l-168 -44l-160 640q-5 0 -32 -33l-16 -19q-4 4 -7 10t-8 20l-16 50q-9 26 -21.5 59t-31.5 81l221 68q126 32 213 32q79 0 138.5 -28t76.5 -67t17 -54q0 -64 -98 -183q69 -9 140 -120zM380 212q120 50 120 116
q0 20 -28.5 52t-47.5 36q-37 -35 -68 -48zM268 684l40 -216q34 29 65 61t63 72t32 69q0 22 -28 30q-20 4 -29 4.5t-14 0.5q-36 0 -129 -21z" />
    <glyph glyph-name="C" unicode="C" horiz-adv-x="600" 
d="M674 616l-219 -143q-23 55 -147 55q-27 0 -57.5 -40.5t-30.5 -91.5q0 -35 22.5 -73.5t73.5 -38.5q37 0 81 21t75 84q3 -6 120 -102l59 -48q-69 -165 -164.5 -191t-128.5 -31t-66 -5q-195 0 -248.5 101.5t-68.5 157.5t-15 125l-1 43q0 256 107 310t146.5 62.5t87.5 8.5
q127 0 239.5 -57.5t134.5 -146.5z" />
    <glyph glyph-name="D" unicode="D" horiz-adv-x="650" 
d="M620 756q46 -93 57 -165.5t11 -123.5q0 -175 -64.5 -269t-125.5 -135q-54 -32 -134 -47l-204 -36l-68 628q-2 -2 -7.5 -7t-15 -16.5t-15 -18t-10.5 -10.5q-14 9 -34.5 112t-29.5 124q250 82 398 82q184 0 242 -118zM428 668q-42 14 -64 14q-33 0 -64 -22l24 -444
q124 52 144 128q15 33 15 148q0 157 -55 176z" />
    <glyph glyph-name="E" unicode="E" 
d="M256 64l512 -24l-4 -212l-712 36l-40 736l-68 -12l12 232l592 88l12 -212l-336 -56l8 -152l332 56l12 -176l-336 -64z" />
    <glyph glyph-name="F" unicode="F" 
d="M52 -136l-40 736l-68 -12l12 232l592 88l12 -212l-336 -56l8 -152l252 40l12 -176l-256 -48l28 -440q-80 -11 -135 -11q-56 0 -81 11z" />
    <glyph glyph-name="G" unicode="G" horiz-adv-x="600" 
d="M368 296l-36 16l56 128l276 -104l-64 -540l-248 20l37 114l31 98q-34 -16 -128 -16q-195 0 -248.5 101.5t-68.5 157.5t-15 125l-1 43q0 256 107 310t146.5 62.5t87.5 8.5q127 0 239.5 -57.5t134.5 -146.5l-219 -143q-23 55 -147 55q-27 0 -57.5 -40.5t-30.5 -91.5
q0 -34 17 -63.5t34.5 -39t44.5 -9.5l35 8z" />
    <glyph glyph-name="H" unicode="H" 
d="M248 912l12 -340h68l-20 320l260 -20l52 -1088l-200 4l-80 572l-76 20l-4 -516l-232 -4l-28 936l-84 20l-4 124z" />
    <glyph glyph-name="I" unicode="I" 
d="M320 224l248 -4l-4 -212h-588l24 188l136 4l20 424l-212 -36l12 232l592 88l12 -212l-204 -40z" />
    <glyph glyph-name="J" unicode="J" horiz-adv-x="650" 
d="M4 436l248 60l-3 -81q0 -54 10.5 -79t37.5 -55.5t54 -30.5q31 0 54.5 60t23.5 200q0 2 -6 113.5t-6 162.5l-9 162l260 -20q22 -138 22 -348q0 -114 -8.5 -199.5t-30 -150.5t-87 -126t-105.5 -84t-125 -23q-140 0 -201.5 52t-81 74.5t-39.5 63t-20 110.5q0 44 12 139z" />
    <glyph glyph-name="K" unicode="K" 
d="M-40 816l248 104v-160l132 140l168 -140l-240 -348l500 -384l12 -196l-508 276l12 -240l-232 -4l-44 848l-72 -16z" />
    <glyph glyph-name="L" unicode="L" 
d="M256 64l512 -24l-4 -212l-712 36l-44 848l-72 -16l24 120l248 104z" />
    <glyph glyph-name="M" unicode="M" horiz-adv-x="700" 
d="M72 728l240 16l64 -104l56 144l156 4l184 -856l-284 28l-52 292l-56 -108l-76 136l-24 -248l-276 -20z" />
    <glyph glyph-name="N" unicode="N" 
d="M208 920l128 -324l-28 296l304 -12l8 -1096l-180 -12l-184 520l4 -428l-232 -4l-28 936l-84 20l-4 124z" />
    <glyph glyph-name="O" unicode="O" horiz-adv-x="750" 
d="M680 732q116 -89 116 -236q0 -105 -40 -180.5t-105.5 -156.5t-166.5 -134.5t-193 -53.5q-105 0 -180 50t-109.5 135.5t-34.5 171.5q0 154 109.5 278.5t208 167.5t167.5 43q116 0 228 -85zM584 606q-7 -42 -34.5 -84t-66.5 -42q-20 0 -36.5 17.5t-16.5 51.5q0 67 75 109
q-92 0 -118 -55t-26 -92q0 -56 36.5 -85.5t76.5 -29.5q55 0 86 47.5t31 105.5q0 32 -7 57z" />
    <glyph glyph-name="P" unicode="P" 
d="M-40 776l221 68q126 32 213 32q79 0 138.5 -28t76.5 -67t17 -53q0 -97 -104.5 -200t-123 -121t-42.5 -39l88 -308l-128 -92l-224 640l-9 -9l-22 -24l-17 -19q-4 4 -7 10t-8 20l-16 50q-9 26 -21.5 59t-31.5 81zM276 640l40 -144q120 122 120 161q0 10 -16.5 13t-34.5 3
q-64 0 -109 -33z" />
    <glyph glyph-name="Q" unicode="Q" horiz-adv-x="500" 
d="M376 30q-68 -36 -139 -36q-101 0 -174.5 64t-73.5 200q0 148 59 271.5t145.5 155t137.5 31.5q83 0 135.5 -45.5t84.5 -119.5t32 -159q0 -82 -22.5 -138t-45.5 -94q23 -14 52 -38t57.5 -54.5t47.5 -71.5l-140 -104q-36 63 -79 100.5t-77 37.5zM344 516q-5 4 -13 4
q-30 0 -67.5 -45t-62.5 -94.5t-25 -88.5q0 -32 7.5 -46.5t28.5 -23t40 -8.5q75 0 103 79t28 124q0 73 -39 99z" />
    <glyph glyph-name="R" unicode="R" horiz-adv-x="600" 
d="M362 433q-11 -10 -33 -31t-33 -30l64 -356l-168 -44l-100 636q-3 -2 -10.5 -9t-21.5 -25l-16 -18q-4 4 -7 10t-8 20l-16 50q-9 26 -21.5 59t-31.5 81l221 68q126 32 213 32q79 0 137 -27t76 -66t18 -52q0 -42 -52 -113l-53 -66q26 -3 52 -39q27 -41 36 -85l84 -432
l-148 -32l-108 396q-8 29 -28 52t-36 23zM244 656l28 -144q31 8 71.5 55.5t40.5 78.5q0 15 -12.5 18t-36 8t-30.5 5q-31 0 -61 -21z" />
    <glyph glyph-name="S" unicode="S" 
d="M-20 756q54 116 228 116q98 0 177 -20.5t122.5 -33.5t132.5 -42l-46 -120q-14 -39 -23 -62.5t-15 -37.5q-18 18 -99.5 53.5t-112.5 38.5q-15 0 -65 14.5t-73 14.5q-22 0 -38 -12t-16 -30q0 -33 57 -76.5t155 -92t155 -135t57 -170.5q0 -46 -36 -123.5t-205 -77.5
q-89 0 -214 33l-113 34l-104 33q13 28 47 123.5t37 96.5q25 -20 84 -46t85 -35t43 -11l105 -25l33 -4q22 0 39 12.5t17 30.5q0 40 -136 111.5t-216 179t-80 185.5q0 39 18 78z" />
    <glyph glyph-name="T" unicode="T" 
d="M452 644l28 -656h-30q-99 0 -142 6t-50 7t-18 7l-32 628l-304 -4l4 192l780 52l12 -212z" />
    <glyph glyph-name="U" unicode="U" horiz-adv-x="650" 
d="M248 912l-3 -105q0 -200 18 -339.5t36.5 -179.5t46.5 -40q35 0 59 61t24 185q0 16 -4 92.5t-4 105.5l-7 118l-6 82l260 -20q22 -139 22 -320q0 -203 -30 -295t-95.5 -153t-105.5 -84t-125 -23q-140 0 -215 64t-102.5 216.5t-27.5 316.5q0 124 11 202l-84 20l-4 124z" />
    <glyph glyph-name="V" unicode="V" horiz-adv-x="700" 
d="M12 744l-84 20l-4 124l296 -20l184 -580l132 544l284 -16l-296 -904l-220 4z" />
    <glyph glyph-name="W" unicode="W" horiz-adv-x="700" 
d="M628 -48l-240 -16l-64 104l-56 -144l-156 -4l-184 856l284 -28l52 -292l56 108l76 -136l40 452l276 20z" />
    <glyph glyph-name="X" unicode="X" horiz-adv-x="700" 
d="M352 164l-188 -324l-252 -8l348 564l-292 488l272 -40l136 -232l132 232l268 12l-284 -477l252 -503l-276 64z" />
    <glyph glyph-name="Y" unicode="Y" horiz-adv-x="700" 
d="M28 756l-100 8l-4 124l296 -20l200 -372l116 336l236 -12l-372 -968l-236 -20l144 412z" />
    <glyph glyph-name="Z" unicode="Z" horiz-adv-x="700" 
d="M748 -24l-768 -44l364 808l-396 -32l-28 224l844 44l-392 -844l388 28z" />
    <glyph glyph-name="bracketleft" unicode="[" horiz-adv-x="400" 
d="M0 872l452 52l-16 -212l-188 -28l-44 -660l176 32l-12 -204l-400 -64z" />
    <glyph glyph-name="backslash" unicode="\" horiz-adv-x="700" 
d="M468 -60l-500 944l272 -40l504 -968z" />
    <glyph glyph-name="bracketright" unicode="]" horiz-adv-x="450" 
d="M8 852l444 60l-40 -976l-408 -44l20 220l94 12q61 8 94 8l28 552l-260 -24z" />
    <glyph glyph-name="asciicircum" unicode="^" 
d="M256 928l280 -96l12 -136l-292 96l-276 -84l20 136z" />
    <glyph glyph-name="underscore" unicode="_" horiz-adv-x="600" 
d="M-4 44l644 -20l-24 -88q-98 3 -176.5 5t-168.5 2l-319 9z" />
    <glyph glyph-name="grave" unicode="`" 
d="M436 736l-56 -88l-316 60l112 172z" />
    <glyph glyph-name="a" unicode="a" horiz-adv-x="500" 
d="M328 564l204 92l4 -273q4 -23 4 -58v-19v-13q-2 -7 -2 -10l6 -299l-220 -12v30q-51 -22 -108 -22q-84 0 -136 41.5t-75.5 103.5t-23.5 129q0 119 92.5 217t223.5 98l27 -1zM324 478q-56 -6 -96.5 -47.5t-40.5 -86.5q0 -43 38.5 -70t78.5 -27l20 2v104q-15 0 -26.5 9
t-11.5 43q0 47 38 73z" />
    <glyph glyph-name="b" unicode="b" horiz-adv-x="525" 
d="M220 9v-17l-220 -12l8 732l-72 -16l24 120l248 104l4 -345q57 23 107 23q71 0 158.5 -47t87.5 -197q0 -68 -13 -104.5t-17.5 -45.5t-48 -74t-121.5 -93.5t-125 -28.5zM215 399l1 -52q8 -29 41.5 -50.5t69.5 -21.5q70 0 93.5 60t23.5 95q0 22 -6 45q-8 -34 -33.5 -64
t-56.5 -30q-38 0 -38 48q0 53 62 79q-77 0 -112.5 -40t-44.5 -69z" />
    <glyph glyph-name="c" unicode="c" horiz-adv-x="500" 
d="M430 575q52 -37 88 -116l18 -43l-181 -40q-8 40 -71 40q-124 -12 -124 -148q0 -106 68 -120q58 0 87 40.5t41 71.5l181 -37q-17 -60 -68.5 -120t-114.5 -85t-131 -25q-109 0 -187 66t-78 175q0 71 30 148t84.5 140.5t102.5 78t67 17.5t39 3q85 0 149 -46z" />
    <glyph glyph-name="d" unicode="d" horiz-adv-x="500" 
d="M320 952l204 92l12 -661q4 -23 4 -58v-19v-13q-2 -7 -2 -10l6 -299l-220 -12v30q-51 -22 -108 -22q-84 0 -136 41.5t-75.5 103.5t-23.5 129q0 119 92.5 217t223.5 98l27 -1zM324 478q-56 -6 -96.5 -47.5t-40.5 -86.5q0 -43 38.5 -70t78.5 -27l20 2v104q-15 0 -26.5 9
t-11.5 43q0 47 38 73z" />
    <glyph glyph-name="e" unicode="e" horiz-adv-x="500" 
d="M450 270l118 -142q-30 -86 -149 -117.5t-190 -31.5q-137 0 -188.5 64t-51.5 157q0 59 22.5 133t95 143t221.5 69q130 0 216 -77l-268 -320q71 0 112.5 43t61.5 79zM315 384q-24 12 -49 12q-57 0 -86 -36q-30 -41 -30 -86q0 -25 15 -76z" />
    <glyph glyph-name="f" unicode="f" 
d="M298 364l-1 -118q0 -58 2.5 -149.5t2.5 -107.5l4 -89l-240 -28q-5 44 -8 96.5t-3 123.5l-5 268h-115l-28 224l151 -16l-3 53q0 197 126.5 234.5t163.5 43.5t70 6q36 0 63 -5t52 -17q25 -10 40.5 -20.5t32 -30t27.5 -68.5l-172 -112q-10 29 -31.5 54t-46.5 25
q-31 0 -44 -28t-21 -96l-5 -51h129v-188z" />
    <glyph glyph-name="g" unicode="g" horiz-adv-x="500" 
d="M536 -47q0 -233 -68.5 -318.5t-207.5 -85.5q-49 0 -107.5 19t-104 62t-45.5 132q0 85 41 162l160 -104l-2 -17q0 -29 21 -46.5t51 -17.5q59 0 67.5 44.5t8.5 96.5q0 62 -9 130q-62 -30 -125 -30q-84 0 -136 41.5t-75.5 103.5t-23.5 129q0 61 16 106.5t92.5 127
t207.5 81.5q19 0 39 -3t38 -8l150 74zM358 263l-2 105q-53 0 -53 37q0 30 20 72q-75 -14 -103.5 -59.5t-28.5 -73.5q0 -45 33.5 -66.5t77.5 -21.5q29 0 56 7z" />
    <glyph glyph-name="h" unicode="h" horiz-adv-x="600" 
d="M220 564q89 29 151 29q56 0 111 -31.5t92 -87.5t54.5 -126.5t17.5 -145.5q0 -66 -22 -202l-204 -12l1 70q0 191 -36.5 283.5t-56.5 92.5q-25 0 -47 -51t-28 -108l-2 -64q0 -17 4.5 -86t4.5 -105l-240 -28q-1 8 -4 50.5t-3 94.5q0 45 -3 78t-9 72l-13 637l200 24z" />
    <glyph glyph-name="i" unicode="i" horiz-adv-x="250" 
d="M264 -92l-220 -12l-12 524l-72 -16l24 120l248 104zM104 924q62 0 95.5 -33.5t33.5 -63.5q0 -47 -25 -78t-43 -34l-33 -3q-65 0 -87 32.5t-25 61.5q0 46 20 77q21 36 64 41z" />
    <glyph glyph-name="j" unicode="j" horiz-adv-x="500" 
d="M372 928q45 0 87 -27t42 -70q0 -27 -19 -64q-19 -41 -44 -47l-38 -4q-66 0 -94 44q-13 18 -18 50q0 46 21 79.5t63 38.5zM536 -47q0 -233 -68.5 -318.5t-207.5 -85.5q-49 0 -107.5 19t-104 62t-45.5 132q0 85 41 162l160 -104l-2 -17q0 -29 21 -46.5t51 -17.5
q59 0 67.5 44.5t8.5 96.5v35q-3 19 -4 29l-5 66l-21 410l-72 -16l24 120l248 104z" />
    <glyph glyph-name="k" unicode="k" 
d="M-40 816l248 104l36 -564l204 112l212 -32l-276 -212l260 -196l12 -196l-384 276l12 -240l-232 -4l-44 848l-72 -16z" />
    <glyph glyph-name="l" unicode="l" horiz-adv-x="250" 
d="M272 -124l-220 -12l-44 848l-72 -16l24 120l248 104z" />
    <glyph glyph-name="m" unicode="m" horiz-adv-x="850" 
d="M442 560q129 40 188 40q50 0 88.5 -22t90.5 -83q49 -63 68 -141.5t19 -151.5q0 -66 -22 -202l-204 -12l1 70q0 190 -36.5 283.5t-62.5 93.5q-9 0 -11 -15l2 -15l7 -21q26 -109 26 -182q0 -54 -22 -202l-204 -12l1 70q0 193 -53 326l-15 50l-31 -70q-13 -32 -19 -89
l-2 -64q0 -17 4.5 -86t4.5 -105l-240 -28q-8 57 -13 97t-5 68l-3 78l2 52l-9 285l192 24l28 -32q75 25 126 25q56 0 104 -29z" />
    <glyph glyph-name="n" unicode="n" horiz-adv-x="600" 
d="M212 564q114 37 168 37q46 0 87.5 -23.5t91.5 -82.5q49 -63 68 -141.5t19 -151.5q0 -66 -22 -202l-204 -12l1 70q0 191 -36.5 283.5t-56.5 92.5q-25 0 -47 -51t-28 -108l-2 -64q0 -17 4.5 -86t4.5 -105l-240 -28q-8 57 -13 97t-5 68l-3 78l2 52l-9 285l192 24z" />
    <glyph glyph-name="o" unicode="o" horiz-adv-x="500" 
d="M500 479q41 -61 41 -153q0 -68 -15.5 -111.5t-52 -98t-109.5 -95.5t-148 -41q-84 0 -136 41.5t-75.5 103.5t-23.5 129q0 61 16 106.5t92.5 127t206.5 81.5q38 0 101.5 -17.5t102.5 -72.5zM414 447q-8 -34 -33.5 -64t-56.5 -30q-15 0 -26.5 9t-11.5 39q0 53 62 79
q-64 0 -112.5 -43.5t-48.5 -92.5q0 -41 37 -69t79 -28q70 0 93.5 60t23.5 95q0 24 -6 45z" />
    <glyph glyph-name="p" unicode="p" horiz-adv-x="500" 
d="M212 -19l24 -393l-220 -12l-33 639l-2 36l-9 173l-72 -16l24 120l248 104l6 -90q57 28 118 28q71 0 158 -47t87 -197q0 -68 -15.5 -111.5t-62 -112t-125 -95t-126.5 -26.5zM189 362q0 -26 11 -49q12 -30 39 -48t64 -18q70 0 93.5 60t23.5 95q0 24 -6 45q-8 -34 -33.5 -64
t-56.5 -30q-15 0 -26.5 9t-11.5 39q0 53 62 79q-77 0 -115 -45t-44 -73z" />
    <glyph glyph-name="q" unicode="q" horiz-adv-x="500" 
d="M520 620l28 -1052l-184 -4l-23 446q-62 -30 -125 -30q-84 0 -136 41.5t-75.5 103.5t-23.5 129q0 61 16 106.5t92.5 127t207.5 81.5q19 0 39 -3t38 -8zM358 263l-2 105q-53 0 -53 37q0 30 20 72q-75 -14 -103.5 -59.5t-28.5 -73.5q0 -45 33.5 -66.5t77.5 -21.5q29 0 56 7z
" />
    <glyph glyph-name="r" unicode="r" 
d="M576 476l-172 -112q-31 79 -78 79q-75 0 -75 -222q0 -20 4.5 -92.5t4.5 -108.5l-240 -28q-21 152 -21 269l2 54l-9 285l192 24l28 -32q72 23 108.5 30.5t58.5 7.5q47 0 90 -25t68.5 -52t38.5 -77z" />
    <glyph glyph-name="s" unicode="s" 
d="M548 372q-45 16 -171.5 52.5t-180.5 36.5q-14 0 -24 -5q-24 -18 -24 -33q0 -47 169.5 -66.5t212.5 -94t43 -120.5q0 -35 -34.5 -108.5t-195.5 -73.5q-85 0 -205 33l-108 32l-106 35l70 137q5 10 10.5 22.5t7.5 16.5q21 -19 98 -40l62 -20q45 -18 98 -18l48 5q38 6 42 13
q0 15 -40 24.5t-60 13.5t-105 14t-144.5 72t-59.5 125q0 58 29.5 112.5t80.5 79.5t128 25q95 0 167.5 -19.5t124.5 -36t143 -46.5l-62 -143q-2 -5 -6.5 -12.5z" />
    <glyph glyph-name="t" unicode="t" horiz-adv-x="625" 
d="M92 856l213 96l-3 -328l159 -4v-188l-165 -2q-9 -69 -9 -130q0 -103 25 -122t51 -19q28 0 51 17q21 18 21 47l-2 17l160 104q41 -77 41 -162q0 -144 -104.5 -178.5t-152.5 -34.5q-138 0 -194 68.5t-67.5 114t-11.5 111.5l-3 110v55l-144 -4l-36 220l182 -12z" />
    <glyph glyph-name="u" unicode="u" horiz-adv-x="600" 
d="M20 608l240 -28q0 -47 -4.5 -113.5t-4.5 -77.5q0 -71 7 -104.5t25.5 -76t44.5 -42.5q19 0 36.5 41.5t28 75.5t19.5 79.5t9 130.5l-1 67l204 -12l19 -122q3 -20 3 -52q0 -27 -6 -65t-16 -78.5t-23.5 -68t-44.5 -71t-85 -74.5t-139 -31q-121 0 -210.5 62.5t-105.5 152.5
t-16 164q0 109 20 243z" />
    <glyph glyph-name="v" unicode="v" horiz-adv-x="700" 
d="M-52 612l268 -12l116 -308l116 300l248 -24l-252 -636l-232 8z" />
    <glyph glyph-name="w" unicode="w" horiz-adv-x="1000" 
d="M532 152l-92 -208l-228 -4l-264 672l268 -12l116 -308l69 186l-53 134l268 -12l116 -308l116 300l248 -24l-252 -636l-232 8z" />
    <glyph glyph-name="x" unicode="x" horiz-adv-x="700" 
d="M350 93l-118 -153l-252 -8l244 323l-276 357l268 -12l134 -177l134 177l268 12l-276 -357l244 -323l-252 8z" />
    <glyph glyph-name="y" unicode="y" horiz-adv-x="650" 
d="M-40 476l196 92l196 -364l120 336l216 -84l-364 -880l-192 72l112 304z" />
    <glyph glyph-name="z" unicode="z" horiz-adv-x="700" 
d="M720 -68h-740l360 464l-340 -4l-28 224l780 -4l-396 -496h376z" />
    <glyph glyph-name="braceleft" unicode="{" horiz-adv-x="400" 
d="M380 56l-24 -232q-188 136 -270 276t-82 268v18.5t10 116.5t171.5 249.5t258.5 167.5l-28 -200q-83 -58 -143 -145t-69.5 -140.5t-9.5 -73.5q0 -156 186 -305z" />
    <glyph glyph-name="bar" unicode="|" horiz-adv-x="300" 
d="M20 952l268 64l-12 -1304l-276 -44z" />
    <glyph glyph-name="braceright" unicode="}" horiz-adv-x="400" 
d="M20 56q186 146 186 305q0 21 -13 103t-88.5 150.5t-91 82t-29.5 23.5l-28 200q94 -22 257 -167t181 -345l2 -40q0 -131 -81 -269t-271 -275z" />
    <glyph glyph-name="asciitilde" unicode="~" 
d="M-8 744l12 112q83 51 156 51q48 0 86 -36t90 -36q82 0 123 34.5t41 54.5l24 -172q-68 -22 -119.5 -33t-92.5 -11q-43 0 -68.5 31t-122.5 31q-36 0 -67.5 -6t-61.5 -20z" />
    <glyph glyph-name="Adieresis" unicode="&#xc4;" 
d="M312 900l480 -1156l-204 -20l-228 532l-128 20l-200 -424l-252 -12zM48 1064q0 30 15 77t65 47q51 0 89.5 -29t38.5 -73q0 -13 -9.5 -46.5t-38 -62.5t-68.5 -29q-51 6 -71.5 44.5t-20.5 71.5zM372 1076q0 49 18 86.5t62 37.5q71 0 99.5 -37t28.5 -65q0 -13 -10 -47
t-38 -62.5t-68 -28.5q-34 0 -63 33t-29 83zM308 564l-68 -172l116 -16z" />
    <glyph glyph-name="Aring" unicode="&#xc5;" 
d="M312 900l480 -1156l-204 -20l-228 532l-128 20l-200 -424l-252 -12zM196 1084q0 30 15 77t65 47q51 0 89.5 -29t38.5 -73q0 -13 -9.5 -46t-38 -62.5t-68.5 -29.5q-50 4 -79 57q-13 28 -13 59zM308 564l-68 -172l116 -16z" />
    <glyph glyph-name="Ccedilla" unicode="&#xc7;" horiz-adv-x="600" 
d="M412 27q91 -66 91 -127q0 -81 -89.5 -115.5t-113.5 -40.5l-172 124q74 0 112.5 21.5t38.5 58.5q0 28 -39 67q-165 20 -209.5 116.5t-57.5 150.5t-13 114l-1 43q0 256 107 310t146.5 62.5t87.5 8.5q127 0 239.5 -57.5t134.5 -146.5l-219 -143q-23 55 -147 55
q-27 0 -57.5 -40.5t-30.5 -91.5q0 -35 22.5 -73.5t73.5 -38.5q37 0 81 21t75 84q3 -6 120 -102l59 -48q-68 -165 -239 -212z" />
    <glyph glyph-name="Eacute" unicode="&#xc9;" 
d="M256 64l512 -24l-4 -212l-712 36l-40 736l-68 -12l12 232l592 88l12 -212l-336 -56l8 -152l332 56l12 -176l-336 -64zM116 1032l260 144l112 -172l-316 -60z" />
    <glyph glyph-name="Ntilde" unicode="&#xd1;" 
d="M208 920l128 -324l-28 296l304 -12l8 -1096l-180 -12l-184 520l4 -428l-232 -4l-28 936l-84 20l-4 124zM16 1024l12 112q83 51 156 51q44 0 83.5 -36t92.5 -36q83 0 139 49q25 19 25 40l24 -172q-130 -44 -212 -44q-43 0 -69.5 31t-121.5 31q-76 0 -129 -26z" />
    <glyph glyph-name="Odieresis" unicode="&#xd6;" horiz-adv-x="750" 
d="M680 732q116 -89 116 -236q0 -105 -40 -180.5t-105.5 -156.5t-166.5 -134.5t-193 -53.5q-105 0 -180 50t-109.5 135.5t-34.5 171.5q0 154 109.5 278.5t208 167.5t167.5 43q116 0 228 -85zM128 1064q0 30 15 77t65 47q51 0 89.5 -29.5t38.5 -72.5q0 -13 -9.5 -46
t-37.5 -62.5t-69 -29.5q-44 5 -68 38.5t-24 77.5zM452 1076q0 45 16 82q20 42 64 42q71 0 99.5 -37t28.5 -65q0 -15 -9.5 -47.5t-38 -61.5t-68.5 -29q-34 0 -63 33t-29 83zM584 606q-7 -42 -34.5 -84t-66.5 -42q-20 0 -36.5 17.5t-16.5 51.5q0 67 75 109q-92 0 -118 -55
t-26 -92q0 -56 36.5 -85.5t76.5 -29.5q55 0 86 47.5t31 105.5q0 32 -7 57z" />
    <glyph glyph-name="Udieresis" unicode="&#xdc;" horiz-adv-x="650" 
d="M248 912l-3 -105q0 -200 18 -339.5t36.5 -179.5t46.5 -40q35 0 59 61t24 185q0 16 -4 92.5t-4 105.5l-7 118l-6 82l260 -20q22 -139 22 -320q0 -203 -30 -295t-95.5 -153t-105.5 -84t-125 -23q-140 0 -215 64t-102.5 216.5t-27.5 316.5q0 124 11 202l-84 20l-4 124z
M48 1064q0 30 15 77t65 47q51 0 89.5 -29t38.5 -73q0 -13 -9.5 -46.5t-38 -62.5t-68.5 -29q-51 6 -71.5 44.5t-20.5 71.5zM372 1076q0 49 18 86.5t62 37.5q71 0 99.5 -37t28.5 -65q0 -13 -10 -47t-38 -62.5t-68 -28.5q-34 0 -63 33t-29 83z" />
    <glyph glyph-name="aacute" unicode="&#xe1;" horiz-adv-x="500" 
d="M328 564l204 92l4 -273q4 -23 4 -58v-19v-13q-2 -7 -2 -10l6 -299l-220 -12v30q-51 -22 -108 -22q-84 0 -136 41.5t-75.5 103.5t-23.5 129q0 119 92.5 217t223.5 98l27 -1zM64 736l260 144l112 -172l-316 -60zM324 478q-56 -6 -96.5 -47.5t-40.5 -86.5q0 -43 38.5 -70
t78.5 -27l20 2v104q-15 0 -26.5 9t-11.5 43q0 47 38 73z" />
    <glyph glyph-name="agrave" unicode="&#xe0;" horiz-adv-x="500" 
d="M328 564l204 92l4 -273q4 -23 4 -58v-19v-13q-2 -7 -2 -10l6 -299l-220 -12v30q-51 -22 -108 -22q-84 0 -136 41.5t-75.5 103.5t-23.5 129q0 119 92.5 217t223.5 98l27 -1zM436 736l-56 -88l-316 60l112 172zM324 478q-56 -6 -96.5 -47.5t-40.5 -86.5q0 -43 38.5 -70
t78.5 -27l20 2v104q-15 0 -26.5 9t-11.5 43q0 47 38 73z" />
    <glyph glyph-name="acircumflex" unicode="&#xe2;" horiz-adv-x="500" 
d="M328 564l204 92l4 -273q4 -23 4 -58v-19v-13q-2 -7 -2 -10l6 -299l-220 -12v30q-51 -22 -108 -22q-84 0 -136 41.5t-75.5 103.5t-23.5 129q0 119 92.5 217t223.5 98l27 -1zM256 928l280 -96l12 -136l-292 96l-276 -84l20 136zM324 478q-56 -6 -96.5 -47.5t-40.5 -86.5
q0 -43 38.5 -70t78.5 -27l20 2v104q-15 0 -26.5 9t-11.5 43q0 47 38 73z" />
    <glyph glyph-name="adieresis" unicode="&#xe4;" horiz-adv-x="500" 
d="M328 564l204 92l4 -273q4 -23 4 -58v-19v-13q-2 -7 -2 -10l6 -299l-220 -12v30q-51 -22 -108 -22q-84 0 -136 41.5t-75.5 103.5t-23.5 129q0 119 92.5 217t223.5 98l27 -1zM-16 800q0 30 15 77t65 47q51 0 89.5 -29.5t38.5 -72.5q0 -13 -18 -75.5t-98 -62.5
q-44 5 -68 38.5t-24 77.5zM308 812q0 30 15 77t65 47q52 0 90 -29.5t38 -72.5q0 -13 -17 -75.5t-99 -62.5q-52 4 -79 57q-13 29 -13 59zM324 478q-56 -6 -96.5 -47.5t-40.5 -86.5q0 -43 38.5 -70t78.5 -27l20 2v104q-15 0 -26.5 9t-11.5 43q0 47 38 73z" />
    <glyph glyph-name="atilde" unicode="&#xe3;" horiz-adv-x="500" 
d="M328 564l204 92l4 -273q4 -23 4 -58v-19v-13q-2 -7 -2 -10l6 -299l-220 -12v30q-51 -22 -108 -22q-84 0 -136 41.5t-75.5 103.5t-23.5 129q0 119 92.5 217t223.5 98l27 -1zM-8 744l12 112q83 51 156 51q48 0 86 -36t90 -36q82 0 123 34.5t41 54.5l24 -172
q-68 -22 -119.5 -33t-92.5 -11q-43 0 -68.5 31t-122.5 31q-36 0 -67.5 -6t-61.5 -20zM324 478q-56 -6 -96.5 -47.5t-40.5 -86.5q0 -43 38.5 -70t78.5 -27l20 2v104q-15 0 -26.5 9t-11.5 43q0 47 38 73z" />
    <glyph glyph-name="aring" unicode="&#xe5;" horiz-adv-x="500" 
d="M328 564l204 92l4 -273q4 -23 4 -58v-19v-13q-2 -7 -2 -10l6 -299l-220 -12v30q-51 -22 -108 -22q-84 0 -136 41.5t-75.5 103.5t-23.5 129q0 119 92.5 217t223.5 98l27 -1zM164 812q0 30 15 77t65 47q52 0 90 -29.5t38 -72.5q0 -13 -17 -75.5t-99 -62.5q-52 4 -72 43.5
t-20 72.5zM324 478q-56 -6 -96.5 -47.5t-40.5 -86.5q0 -43 38.5 -70t78.5 -27l20 2v104q-15 0 -26.5 9t-11.5 43q0 47 38 73z" />
    <glyph glyph-name="ccedilla" unicode="&#xe7;" horiz-adv-x="600" 
d="M412 27q91 -66 91 -127q0 -81 -89.5 -115.5t-113.5 -40.5l-172 124q74 0 112.5 21.5t38.5 58.5q0 28 -39 67q-165 20 -209.5 116.5t-57.5 150.5t-13 114l-1 43q0 256 107 310t146.5 62.5t87.5 8.5q127 0 239.5 -57.5t134.5 -146.5l-219 -143q-23 55 -147 55
q-27 0 -57.5 -40.5t-30.5 -91.5q0 -35 22.5 -73.5t73.5 -38.5q37 0 81 21t75 84q3 -6 120 -102l59 -48q-68 -165 -239 -212z" />
    <glyph glyph-name="eacute" unicode="&#xe9;" horiz-adv-x="500" 
d="M450 270l118 -142q-30 -86 -149 -117.5t-190 -31.5q-137 0 -188.5 64t-51.5 157q0 59 22.5 133t95 143t221.5 69q130 0 216 -77l-268 -320q71 0 112.5 43t61.5 79zM64 736l260 144l112 -172l-316 -60zM315 384q-24 12 -49 12q-57 0 -86 -36q-30 -41 -30 -86q0 -25 15 -76
z" />
    <glyph glyph-name="egrave" unicode="&#xe8;" horiz-adv-x="500" 
d="M450 270l118 -142q-30 -86 -149 -117.5t-190 -31.5q-137 0 -188.5 64t-51.5 157q0 59 22.5 133t95 143t221.5 69q130 0 216 -77l-268 -320q71 0 112.5 43t61.5 79zM436 736l-56 -88l-316 60l112 172zM315 384q-24 12 -49 12q-57 0 -86 -36q-30 -41 -30 -86q0 -25 15 -76z
" />
    <glyph glyph-name="ecircumflex" unicode="&#xea;" horiz-adv-x="500" 
d="M450 270l118 -142q-30 -86 -149 -117.5t-190 -31.5q-137 0 -188.5 64t-51.5 157q0 59 22.5 133t95 143t221.5 69q130 0 216 -77l-268 -320q71 0 112.5 43t61.5 79zM256 928l280 -96l12 -136l-292 96l-276 -84l20 136zM315 384q-24 12 -49 12q-57 0 -86 -36
q-30 -41 -30 -86q0 -25 15 -76z" />
    <glyph glyph-name="edieresis" unicode="&#xeb;" horiz-adv-x="500" 
d="M450 270l118 -142q-30 -86 -149 -117.5t-190 -31.5q-137 0 -188.5 64t-51.5 157q0 59 22.5 133t95 143t221.5 69q130 0 216 -77l-268 -320q71 0 112.5 43t61.5 79zM-16 800q0 30 15 77t65 47q51 0 89.5 -29.5t38.5 -72.5q0 -13 -18 -75.5t-98 -62.5q-44 5 -68 38.5
t-24 77.5zM308 812q0 30 15 77t65 47q52 0 90 -29.5t38 -72.5q0 -13 -17 -75.5t-99 -62.5q-52 4 -79 57q-13 29 -13 59zM315 384q-24 12 -49 12q-57 0 -86 -36q-30 -41 -30 -86q0 -25 15 -76z" />
    <glyph glyph-name="iacute" unicode="&#xed;" horiz-adv-x="250" 
d="M264 -92l-220 -12l-12 524l-72 -16l24 120l248 104zM64 736l260 144l112 -172l-316 -60z" />
    <glyph glyph-name="igrave" unicode="&#xec;" horiz-adv-x="250" 
d="M264 -92l-220 -12l-12 524l-72 -16l24 120l248 104zM436 736l-56 -88l-316 60l112 172z" />
    <glyph glyph-name="icircumflex" unicode="&#xee;" horiz-adv-x="250" 
d="M264 -92l-220 -12l-12 524l-72 -16l24 120l248 104zM108 916l280 -96l12 -136l-292 96l-276 -84l20 136z" />
    <glyph glyph-name="idieresis" unicode="&#xef;" horiz-adv-x="250" 
d="M264 -92l-220 -12l-12 524l-72 -16l24 120l248 104zM-164 804q0 49 18 86.5t62 37.5q69 0 111 -51q17 -23 17 -51q0 -13 -17 -75.5t-99 -62.5q-20 0 -36.5 10t-36 36t-19.5 70zM160 816q0 30 15 77t65 47q52 0 90 -30t38 -72q0 -15 -18 -76.5t-98 -61.5q-52 6 -79 57
q-13 28 -13 59z" />
    <glyph glyph-name="ntilde" unicode="&#xf1;" horiz-adv-x="600" 
d="M212 564q114 37 168 37q46 0 87.5 -23.5t91.5 -82.5q49 -63 68 -141.5t19 -151.5q0 -66 -22 -202l-204 -12l1 70q0 191 -36.5 283.5t-56.5 92.5q-25 0 -47 -51t-28 -108l-2 -64q0 -17 4.5 -86t4.5 -105l-240 -28q-8 57 -13 97t-5 68l-3 78l2 52l-9 285l192 24zM-8 744
l12 112q83 51 156 51q48 0 86 -36t90 -36q82 0 123 34.5t41 54.5l24 -172q-68 -22 -119.5 -33t-92.5 -11q-43 0 -68.5 31t-122.5 31q-36 0 -67.5 -6t-61.5 -20z" />
    <glyph glyph-name="oacute" unicode="&#xf3;" horiz-adv-x="500" 
d="M500 479q41 -61 41 -153q0 -68 -15.5 -111.5t-52 -98t-109.5 -95.5t-148 -41q-84 0 -136 41.5t-75.5 103.5t-23.5 129q0 61 16 106.5t92.5 127t206.5 81.5q38 0 101.5 -17.5t102.5 -72.5zM64 736l260 144l112 -172l-316 -60zM414 447q-8 -34 -33.5 -64t-56.5 -30
q-15 0 -26.5 9t-11.5 39q0 53 62 79q-64 0 -112.5 -43.5t-48.5 -92.5q0 -41 37 -69t79 -28q70 0 93.5 60t23.5 95q0 24 -6 45z" />
    <glyph glyph-name="ograve" unicode="&#xf2;" horiz-adv-x="500" 
d="M500 479q41 -61 41 -153q0 -68 -15.5 -111.5t-52 -98t-109.5 -95.5t-148 -41q-84 0 -136 41.5t-75.5 103.5t-23.5 129q0 61 16 106.5t92.5 127t206.5 81.5q38 0 101.5 -17.5t102.5 -72.5zM436 736l-56 -88l-316 60l112 172zM414 447q-8 -34 -33.5 -64t-56.5 -30
q-15 0 -26.5 9t-11.5 39q0 53 62 79q-64 0 -112.5 -43.5t-48.5 -92.5q0 -41 37 -69t79 -28q70 0 93.5 60t23.5 95q0 24 -6 45z" />
    <glyph glyph-name="ocircumflex" unicode="&#xf4;" horiz-adv-x="500" 
d="M500 479q41 -61 41 -153q0 -68 -15.5 -111.5t-52 -98t-109.5 -95.5t-148 -41q-84 0 -136 41.5t-75.5 103.5t-23.5 129q0 61 16 106.5t92.5 127t206.5 81.5q38 0 101.5 -17.5t102.5 -72.5zM256 928l280 -96l12 -136l-292 96l-276 -84l20 136zM414 447q-8 -34 -33.5 -64
t-56.5 -30q-15 0 -26.5 9t-11.5 39q0 53 62 79q-64 0 -112.5 -43.5t-48.5 -92.5q0 -41 37 -69t79 -28q70 0 93.5 60t23.5 95q0 24 -6 45z" />
    <glyph glyph-name="odieresis" unicode="&#xf6;" horiz-adv-x="500" 
d="M500 479q41 -61 41 -153q0 -68 -15.5 -111.5t-52 -98t-109.5 -95.5t-148 -41q-84 0 -136 41.5t-75.5 103.5t-23.5 129q0 61 16 106.5t92.5 127t206.5 81.5q38 0 101.5 -17.5t102.5 -72.5zM-16 800q0 30 15 77t65 47q51 0 89.5 -29.5t38.5 -72.5q0 -13 -18 -75.5
t-98 -62.5q-44 5 -68 38.5t-24 77.5zM308 812q0 30 15 77t65 47q52 0 90 -29.5t38 -72.5q0 -13 -17 -75.5t-99 -62.5q-52 4 -79 57q-13 29 -13 59zM414 447q-8 -34 -33.5 -64t-56.5 -30q-15 0 -26.5 9t-11.5 39q0 53 62 79q-64 0 -112.5 -43.5t-48.5 -92.5q0 -41 37 -69
t79 -28q70 0 93.5 60t23.5 95q0 24 -6 45z" />
    <glyph glyph-name="otilde" unicode="&#xf5;" horiz-adv-x="500" 
d="M500 479q41 -61 41 -153q0 -68 -15.5 -111.5t-52 -98t-109.5 -95.5t-148 -41q-84 0 -136 41.5t-75.5 103.5t-23.5 129q0 61 16 106.5t92.5 127t206.5 81.5q38 0 101.5 -17.5t102.5 -72.5zM-8 744l12 112q83 51 156 51q48 0 86 -36t90 -36q82 0 123 34.5t41 54.5l24 -172
q-68 -22 -119.5 -33t-92.5 -11q-43 0 -68.5 31t-122.5 31q-36 0 -67.5 -6t-61.5 -20zM414 447q-8 -34 -33.5 -64t-56.5 -30q-15 0 -26.5 9t-11.5 39q0 53 62 79q-64 0 -112.5 -43.5t-48.5 -92.5q0 -41 37 -69t79 -28q70 0 93.5 60t23.5 95q0 24 -6 45z" />
    <glyph glyph-name="uacute" unicode="&#xfa;" horiz-adv-x="600" 
d="M20 608l240 -28q0 -47 -4.5 -113.5t-4.5 -77.5q0 -71 7 -104.5t25.5 -76t44.5 -42.5q19 0 36.5 41.5t28 75.5t19.5 79.5t9 130.5l-1 67l204 -12l19 -122q3 -20 3 -52q0 -27 -6 -65t-16 -78.5t-23.5 -68t-44.5 -71t-85 -74.5t-139 -31q-121 0 -210.5 62.5t-105.5 152.5
t-16 164q0 109 20 243zM156 744l260 144l112 -172l-316 -60z" />
    <glyph glyph-name="ugrave" unicode="&#xf9;" horiz-adv-x="600" 
d="M20 608l240 -28q0 -47 -4.5 -113.5t-4.5 -77.5q0 -71 7 -104.5t25.5 -76t44.5 -42.5q19 0 36.5 41.5t28 75.5t19.5 79.5t9 130.5l-1 67l204 -12l19 -122q3 -20 3 -52q0 -27 -6 -65t-16 -78.5t-23.5 -68t-44.5 -71t-85 -74.5t-139 -31q-121 0 -210.5 62.5t-105.5 152.5
t-16 164q0 109 20 243zM512 736l-56 -88l-316 60l112 172z" />
    <glyph glyph-name="ucircumflex" unicode="&#xfb;" horiz-adv-x="600" 
d="M20 608l240 -28q0 -47 -4.5 -113.5t-4.5 -77.5q0 -71 7 -104.5t25.5 -76t44.5 -42.5q19 0 36.5 41.5t28 75.5t19.5 79.5t9 130.5l-1 67l204 -12l19 -122q3 -20 3 -52q0 -27 -6 -65t-16 -78.5t-23.5 -68t-44.5 -71t-85 -74.5t-139 -31q-121 0 -210.5 62.5t-105.5 152.5
t-16 164q0 109 20 243zM300 924l280 -96l12 -136l-292 96l-276 -84l20 136z" />
    <glyph glyph-name="udieresis" unicode="&#xfc;" horiz-adv-x="600" 
d="M20 608l240 -28q0 -47 -4.5 -113.5t-4.5 -77.5q0 -71 7 -104.5t25.5 -76t44.5 -42.5q19 0 36.5 41.5t28 75.5t19.5 79.5t9 130.5l-1 67l204 -12l19 -122q3 -20 3 -52q0 -27 -6 -65t-16 -78.5t-23.5 -68t-44.5 -71t-85 -74.5t-139 -31q-121 0 -210.5 62.5t-105.5 152.5
t-16 164q0 109 20 243zM36 800q0 30 15 77t65 47q52 0 90 -30t38 -72q0 -13 -17 -75.5t-99 -62.5q-52 6 -79 57q-13 28 -13 59zM360 812q0 30 15 77t65 47q51 0 89.5 -29.5t38.5 -72.5q0 -13 -9.5 -46t-38 -62.5t-68.5 -29.5q-51 4 -71.5 44.5t-20.5 71.5z" />
    <glyph glyph-name="dagger" unicode="&#x2020;" horiz-adv-x="400" 
d="M8 648l108 8l80 140l76 -136l124 -4l8 -164l-128 -4l-84 -252l-68 252h-116v160z" />
    <glyph glyph-name="cent" unicode="&#xa2;" horiz-adv-x="600" 
d="M220 20q-118 12 -166.5 76t-71 137t-22.5 163l-1 43q0 196 85.5 276.5t183.5 98.5l4 102q73 0 112 -1t64 -3l-4 -112q144 -25 200.5 -81t69.5 -103l-219 -143q-23 55 -147 55q-27 0 -57.5 -40.5t-30.5 -91.5q0 -35 22.5 -73.5t73.5 -38.5q37 0 81 21t75 84q3 -6 120 -102
l59 -48q-51 -123 -112.5 -156t-86 -42.5t-52.5 -16.5l-4 -84h-180z" />
    <glyph glyph-name="sterling" unicode="&#xa3;" 
d="M288 52l480 -12l-4 -212l-712 36q-3 23 -3 141l1 355h-115l-28 224l151 -16l-3 53q0 197 126.5 234.5t163.5 43.5t70 6q36 0 63 -5t52 -17q25 -10 40.5 -20.5t32 -30t27.5 -68.5l-172 -112q-10 29 -31.5 54t-46.5 25q-31 0 -44 -28t-21 -96l-5 -51h129v-188l-141 -4
q0 -24 -3.5 -77t-3.5 -79l-4 -62l-1 -44z" />
    <glyph glyph-name="bullet" unicode="&#x2022;" horiz-adv-x="200" 
d="M80 600q62 0 95.5 -33.5t33.5 -63.5q0 -46 -24.5 -77t-38.5 -34l-38 -4q-100 0 -112 94q0 46 20 77q21 36 64 41z" />
    <glyph glyph-name="germandbls" unicode="&#xdf;" horiz-adv-x="600" 
d="M12 612q-8 35 -8 60q0 53 29 96.5t71 61t93 35t125 17.5q159 0 191.5 -67t32.5 -83q0 -67 -98 -184q17 -2 57 -27t86.5 -99t46.5 -143q0 -147 -207 -233l-79 197q68 41 68 89q0 20 -28 52t-48 36q-36 -36 -68 -48l108 -440l-212 40zM220 664l28 -144q108 105 108 141
q0 8 -16 13t-32 8t-27 3q-31 0 -61 -21z" />
    <glyph glyph-name="acute" unicode="&#xb4;" 
d="M64 736l260 144l112 -172l-316 -60z" />
    <glyph glyph-name="dieresis" unicode="&#xa8;" horiz-adv-x="500" 
d="M-16 800q0 30 15 77t65 47q51 0 89.5 -29.5t38.5 -72.5q0 -13 -18 -75.5t-98 -62.5q-44 5 -68 38.5t-24 77.5zM308 812q0 30 15 77t65 47q52 0 90 -29.5t38 -72.5q0 -13 -17 -75.5t-99 -62.5q-52 4 -79 57q-13 29 -13 59z" />
    <glyph glyph-name="AE" unicode="&#xc6;" horiz-adv-x="900" 
d="M380 252l-148 24l-200 -424l-252 -12l532 1060l580 64l12 -212l-380 -64l16 -156l368 68l12 -176l-352 -72l32 -232l512 -24l-4 -212l-684 56zM308 564l-68 -172l116 -16z" />
    <glyph glyph-name="Oslash" unicode="&#xd8;" horiz-adv-x="750" 
d="M-76 40l89 92q-45 89 -45 196q0 154 109 278.5t207.5 167.5t167.5 43q67 0 136 -30l80 85l148 -108l-76 -93q56 -74 56 -175q0 -113 -44.5 -190t-148.5 -206t-312 -129q-78 0 -147 33l-88 -76zM584 606q-7 -42 -34.5 -84t-66.5 -42q-20 0 -36.5 17.5t-16.5 51.5
q0 67 75 109q-92 0 -118 -55t-26 -92q0 -56 36.5 -85.5t76.5 -29.5q55 0 86 47.5t31 105.5q0 32 -7 57z" />
    <glyph glyph-name="plusminus" unicode="&#xb1;" horiz-adv-x="450" 
d="M8 520l164 15l12 153h156l-16 -140l152 16l-16 -160l-164 -5l-20 -163h-152l20 158l-148 -6zM0 184l464 28l-8 -116l-472 -20z" />
    <glyph glyph-name="yen" unicode="&#xa5;" horiz-adv-x="700" 
d="M28 756l-100 8l-4 124l296 -20l200 -372l116 336l236 -12l-144 -374l104 2l-20 -140l-124 4l-43 -105l151 1l-32 -128l-173 -6l-91 -222l-236 -20l86 247l-166 -3l16 132l197 5l11 31l-16 56l-192 16l-4 136l100 -4z" />
    <glyph glyph-name="mu" unicode="&#xb5;" horiz-adv-x="600" 
d="M224 -16l-16 -276l-236 4l37 532q0 43 1 91.5t2 93.5q0 112 8 179l240 -28q0 -47 -4.5 -113.5t-4.5 -77.5q0 -71 7 -104.5t25.5 -76t44.5 -42.5q19 0 36.5 41.5t28 75.5t19.5 79.5t9 130.5l-1 67l204 -12l19 -122q3 -20 3 -52q0 -27 -6 -65t-16 -78.5t-23.5 -68
t-44.5 -71t-89 -76.5t-173 -33z" />
    <glyph glyph-name="ae" unicode="&#xe6;" horiz-adv-x="900" 
d="M536 524q78 24 134 24q60 0 106 -22.5t62.5 -32t41.5 -25.5l-268 -320q71 0 110.5 41t63.5 81l118 -142q-31 -84 -155.5 -115.5t-197.5 -31.5q-131 0 -179 55l-68 -36q-63 -12 -108 -12q-136 0 -175.5 98.5t-39.5 167.5q0 119 92.5 217t223.5 98l27 -1l4 -4l204 92z
M651 384q-24 12 -49 12q-57 0 -86 -36q-30 -41 -30 -86q0 -25 15 -76zM324 478q-56 -6 -96.5 -47.5t-40.5 -86.5q0 -43 38.5 -70t78.5 -27l20 2v104q-15 0 -26.5 9t-11.5 43q0 47 38 73z" />
    <glyph glyph-name="oslash" unicode="&#xf8;" horiz-adv-x="500" 
d="M5 124q-25 59 -25 130q0 116 93 215.5t223 99.5q64 0 123 -28l49 67l37 -33q71 -62 71 -67l-64 -72q26 -58 26 -125q0 -97 -50.5 -173t-123.5 -117t-148 -41q-57 0 -104 23l-76 -67l-112 92zM414 447q-8 -34 -33.5 -64t-56.5 -30q-15 0 -26.5 9t-11.5 39q0 53 62 79
q-64 0 -112.5 -43.5t-48.5 -92.5q0 -41 37 -69t79 -28q70 0 93.5 60t23.5 95q0 24 -6 45z" />
    <glyph glyph-name="questiondown" unicode="&#xbf;" 
d="M406 427q-87 0 -184 -91t-97 -133q0 -10 7 -11l27 -3q28 0 73 9l72 14q55 7 130.5 46.5t81.5 45.5q12 0 47 -105l37 -115q-63 -21 -204 -60.5t-230 -39.5q-167 0 -198 64t-33 82q0 91 162.5 253.5t257.5 190.5zM280 664q-36 0 -72.5 18.5t-46.5 41t-10 37.5
q0 47 24.5 77.5t38.5 33.5l38 4q100 0 112 -94q0 -63 -26 -88t-58 -30z" />
    <glyph glyph-name="exclamdown" unicode="&#xa1;" horiz-adv-x="200" 
d="M128 716q-45 0 -87 27t-42 70q0 47 24.5 77.5t38.5 33.5l38 4q100 0 112 -94q0 -46 -20.5 -80t-63.5 -38zM200 580l64 -540l-292 -88l60 612z" />
    <glyph glyph-name="florin" unicode="&#x192;" 
d="M61 -10q-5 45 -8 134t-3 236h-115l-28 224l151 -16l-3 53q0 197 126.5 234.5t163.5 43.5t70 6q36 0 63 -5t52 -17q25 -10 40.5 -20.5t32 -30t27.5 -68.5l-172 -112q-10 29 -31.5 54t-46.5 25q-31 0 -44 -28t-21 -96l-5 -51h129v-188l-141 -4l-1 -118q0 -58 2.5 -149.5
t2.5 -107.5l4 -89q0 -95 -19.5 -171.5t-50 -114t-99 -63t-135.5 -25.5q-63 0 -171 35t-108 181q0 85 41 162l160 -104l-2 -17q0 -28 22 -46t50 -18q59 0 67.5 45t8.5 96q0 59 -9 130z" />
    <glyph glyph-name="guillemotleft" unicode="&#xab;" horiz-adv-x="950" 
d="M4 524l588 232l-20 -168l-252 -76l232 -80l-24 -172zM454 524l588 232l-20 -168l-252 -76l232 -80l-24 -172z" />
    <glyph glyph-name="guillemotright" unicode="&#xbb;" horiz-adv-x="950" 
d="M546 524l-524 -264l-24 172l232 80l-252 76l-20 168zM996 524l-524 -264l-24 172l232 80l-252 76l-20 168z" />
    <glyph glyph-name="ellipsis" unicode="&#x2026;" horiz-adv-x="650" 
d="M80 204q62 0 95.5 -33.5t33.5 -63.5q0 -46 -24.5 -77t-38.5 -34l-38 -4q-100 0 -112 94q0 46 20 77q20 36 64 41zM320 208q62 0 95.5 -33.5t33.5 -63.5q0 -48 -35 -90q-15 -20 -28 -21l-38 -4q-99 0 -112 94q0 45 21 79t63 39zM556 212q62 0 95.5 -33.5t33.5 -63.5
q0 -26 -19.5 -67t-43.5 -44l-38 -4q-65 0 -86 31t-26 63q0 43 20.5 78t63.5 40z" />
    <glyph glyph-name="nbspace" unicode="&#xa0;" horiz-adv-x="0" 
 />
    <glyph glyph-name="Agrave" unicode="&#xc0;" 
d="M312 900l480 -1156l-204 -20l-228 532l-128 20l-200 -424l-252 -12zM484 1020l-56 -88l-316 60l112 172zM308 564l-68 -172l116 -16z" />
    <glyph glyph-name="Atilde" unicode="&#xc3;" 
d="M312 900l480 -1156l-204 -20l-228 532l-128 20l-200 -424l-252 -12zM16 1024l12 112q83 51 156 51q44 0 83.5 -36t92.5 -36q83 0 139 49q25 19 25 40l24 -172q-130 -44 -212 -44q-43 0 -69.5 31t-121.5 31q-76 0 -129 -26zM308 564l-68 -172l116 -16z" />
    <glyph glyph-name="Otilde" unicode="&#xd5;" horiz-adv-x="750" 
d="M680 732q116 -89 116 -236q0 -105 -40 -180.5t-105.5 -156.5t-166.5 -134.5t-193 -53.5q-105 0 -180 50t-109.5 135.5t-34.5 171.5q0 154 109.5 278.5t208 167.5t167.5 43q116 0 228 -85zM148 1028l12 112q83 51 156 51q45 0 84 -36t92 -36q80 0 122 35t42 54l24 -172
q-137 -44 -212 -44q-43 0 -68 31t-123 31q-72 0 -129 -26zM584 606q-7 -42 -34.5 -84t-66.5 -42q-20 0 -36.5 17.5t-16.5 51.5q0 67 75 109q-92 0 -118 -55t-26 -92q0 -56 36.5 -85.5t76.5 -29.5q55 0 86 47.5t31 105.5q0 32 -7 57z" />
    <glyph glyph-name="OE" unicode="&#x152;" horiz-adv-x="1100" 
d="M606 114q-152 -143 -316 -143q-103 0 -184.5 53t-106 150.5t-24.5 166.5q0 175 93 280t181.5 150.5t188.5 45.5l47 -2l643 105l12 -212l-336 -56l8 -152l332 56l12 -176l-336 -64l16 -240l512 -24l-4 -212l-712 36zM584 606q-7 -42 -34.5 -84t-66.5 -42q-20 0 -36.5 17.5
t-16.5 51.5q0 67 75 109q-92 0 -118 -55t-26 -92q0 -56 36.5 -85.5t76.5 -29.5q55 0 86 47.5t31 105.5q0 32 -7 57z" />
    <glyph glyph-name="oe" unicode="&#x153;" horiz-adv-x="900" 
d="M406 51q-88 -71 -190 -71q-84 0 -136 41.5t-75.5 103.5t-23.5 129q0 61 16 106.5t93.5 127.5t206.5 82q70 0 122.5 -29t74.5 -64q95 63 210 63q131 0 216 -76l-268 -320q71 0 112.5 43t61.5 79l118 -142q-30 -83 -146.5 -113.5t-190.5 -30.5q-146 0 -201 71zM707 392
q-24 12 -49 12q-59 0 -87.5 -37.5t-28.5 -84.5q0 -24 10 -57l5 -19zM414 447q-8 -34 -33.5 -64t-56.5 -30q-15 0 -26.5 9t-11.5 39q0 53 62 79q-64 0 -112.5 -43.5t-48.5 -92.5q0 -41 37 -69t79 -28q70 0 93.5 60t23.5 95q0 24 -6 45z" />
    <glyph glyph-name="endash" unicode="&#x2013;" horiz-adv-x="650" 
d="M8 520l648 48l-16 -160l-644 -20z" />
    <glyph glyph-name="emdash" unicode="&#x2014;" horiz-adv-x="450" 
d="M8 520l468 44l-16 -160l-464 -16z" />
    <glyph glyph-name="quotedblleft" unicode="&#x201c;" horiz-adv-x="500" 
d="M143 547l-104 14l-79 312l203 -29zM443 547l-104 14l-79 312l203 -29z" />
    <glyph glyph-name="quotedblright" unicode="&#x201d;" horiz-adv-x="500" 
d="M143 547l-104 14l-79 312l203 -29zM443 547l-104 14l-79 312l203 -29z" />
    <glyph glyph-name="quoteleft" unicode="&#x2018;" horiz-adv-x="200" 
d="M193 547l-104 14l-79 312l203 -29z" />
    <glyph glyph-name="quoteright" unicode="&#x2019;" horiz-adv-x="200" 
d="M193 547l-104 14l-79 312l203 -29z" />
    <glyph glyph-name="divide" unicode="&#xf7;" horiz-adv-x="450" 
d="M8 520l468 44l-16 -160l-464 -16zM212 352q62 0 95.5 -33t33.5 -64q0 -26 -18 -65q-21 -41 -45 -46l-38 -4q-100 0 -112 94q0 45 21 79t63 39zM200 792q62 0 95.5 -33.5t33.5 -63.5q0 -45 -35 -91q-16 -19 -28 -20l-38 -4q-100 0 -112 94q0 42 19 77q23 37 65 41z" />
    <glyph glyph-name="ydieresis" unicode="&#xff;" horiz-adv-x="650" 
d="M-40 476l196 92l196 -364l120 336l216 -84l-364 -880l-192 72l112 304zM48 800q0 30 15 77t65 47q51 0 89.5 -29t38.5 -73q0 -13 -18 -75.5t-98 -62.5q-51 6 -71.5 44.5t-20.5 71.5zM372 812q0 30 15 77t65 47q52 0 90 -29.5t38 -72.5q0 -13 -17 -75.5t-99 -62.5
q-52 4 -72 43.5t-20 72.5z" />
    <glyph glyph-name="Ydieresis" unicode="&#x178;" horiz-adv-x="700" 
d="M28 756l-100 8l-4 124l296 -20l200 -372l116 336l236 -12l-372 -968l-236 -20l144 412zM48 1064q0 30 15 77t65 47q51 0 89.5 -29t38.5 -73q0 -13 -9.5 -46.5t-38 -62.5t-68.5 -29q-51 6 -71.5 44.5t-20.5 71.5zM372 1076q0 49 18 86.5t62 37.5q71 0 99.5 -37t28.5 -65
q0 -13 -10 -47t-38 -62.5t-68 -28.5q-34 0 -63 33t-29 83z" />
    <glyph glyph-name="guilsinglleft" unicode="&#x2039;" horiz-adv-x="500" 
d="M4 524l588 232l-20 -168l-252 -76l232 -80l-24 -172z" />
    <glyph glyph-name="guilsinglright" unicode="&#x203a;" horiz-adv-x="500" 
d="M546 524l-524 -264l-24 172l232 80l-252 76l-20 168z" />
    <glyph glyph-name="daggerdbl" unicode="&#x2021;" horiz-adv-x="400" 
d="M272 392l128 -4l-8 -164l-124 -4l-76 -136l-80 140l-108 8v160h116l4 96h-116v160l108 8l80 140l76 -136l124 -4l8 -164l-128 -4z" />
    <glyph glyph-name="quotesinglbase" unicode="&#x201a;" horiz-adv-x="200" 
d="M173 -13l-104 14l-79 312l203 -29z" />
    <glyph glyph-name="quotedblbase" unicode="&#x201e;" horiz-adv-x="500" 
d="M139 -21l-104 14l-79 312l203 -29zM439 -21l-104 14l-79 312l203 -29z" />
    <glyph glyph-name="perthousand" unicode="&#x2030;" horiz-adv-x="1050" 
d="M776 856l-612 -1016l-252 -8l596 1012zM87 828l20 1q64 0 109.5 -36t58.5 -63.5t13 -53.5q0 -75 -39 -122t-64 -52t-54 -5q-101 0 -135.5 51t-40.5 96q0 70 33 123.5t99 60.5zM567 264l20 1q64 0 109.5 -36t58.5 -62.5t13 -54.5q0 -75 -40 -122.5t-65 -52t-52 -4.5
q-101 0 -135.5 50.5t-40.5 96.5q0 70 33 123.5t99 60.5zM917 264l20 1q80 0 130.5 -52.5t50.5 -100.5q0 -75 -40 -122.5t-65 -52t-52 -4.5q-101 0 -135.5 50.5t-40.5 96.5q0 70 33 123t99 61z" />
    <glyph glyph-name="Acircumflex" unicode="&#xc2;" 
d="M312 900l480 -1156l-204 -20l-228 532l-128 20l-200 -424l-252 -12zM304 1160l280 -96l12 -136l-292 96l-276 -84l20 136zM308 564l-68 -172l116 -16z" />
    <glyph glyph-name="Ecircumflex" unicode="&#xca;" 
d="M256 64l512 -24l-4 -212l-712 36l-40 736l-68 -12l12 232l592 88l12 -212l-336 -56l8 -152l332 56l12 -176l-336 -64zM304 1160l280 -96l12 -136l-292 96l-276 -84l20 136z" />
    <glyph glyph-name="Aacute" unicode="&#xc1;" 
d="M312 900l480 -1156l-204 -20l-228 532l-128 20l-200 -424l-252 -12zM116 1032l260 144l112 -172l-316 -60zM308 564l-68 -172l116 -16z" />
    <glyph glyph-name="Edieresis" unicode="&#xcb;" 
d="M256 64l512 -24l-4 -212l-712 36l-40 736l-68 -12l12 232l592 88l12 -212l-336 -56l8 -152l332 56l12 -176l-336 -64zM48 1064q0 30 15 77t65 47q51 0 89.5 -29t38.5 -73q0 -13 -9.5 -46.5t-38 -62.5t-68.5 -29q-51 6 -71.5 44.5t-20.5 71.5zM372 1076q0 49 18 86.5
t62 37.5q71 0 99.5 -37t28.5 -65q0 -13 -10 -47t-38 -62.5t-68 -28.5q-34 0 -63 33t-29 83z" />
    <glyph glyph-name="Egrave" unicode="&#xc8;" 
d="M256 64l512 -24l-4 -212l-712 36l-40 736l-68 -12l12 232l592 88l12 -212l-336 -56l8 -152l332 56l12 -176l-336 -64zM484 1020l-56 -88l-316 60l112 172z" />
    <glyph glyph-name="Iacute" unicode="&#xcd;" 
d="M320 224l248 -4l-4 -212h-588l24 188l136 4l20 424l-212 -36l12 232l592 88l12 -212l-204 -40zM116 1032l260 144l112 -172l-316 -60z" />
    <glyph glyph-name="Icircumflex" unicode="&#xce;" 
d="M320 224l248 -4l-4 -212h-588l24 188l136 4l20 424l-212 -36l12 232l592 88l12 -212l-204 -40zM304 1160l280 -96l12 -136l-292 96l-276 -84l20 136z" />
    <glyph glyph-name="Idieresis" unicode="&#xcf;" 
d="M320 224l248 -4l-4 -212h-588l24 188l136 4l20 424l-212 -36l12 232l592 88l12 -212l-204 -40zM48 1064q0 30 15 77t65 47q51 0 89.5 -29t38.5 -73q0 -13 -9.5 -46.5t-38 -62.5t-68.5 -29q-51 6 -71.5 44.5t-20.5 71.5zM372 1076q0 49 18 86.5t62 37.5q71 0 99.5 -37
t28.5 -65q0 -13 -10 -47t-38 -62.5t-68 -28.5q-34 0 -63 33t-29 83z" />
    <glyph glyph-name="Igrave" unicode="&#xcc;" 
d="M320 224l248 -4l-4 -212h-588l24 188l136 4l20 424l-212 -36l12 232l592 88l12 -212l-204 -40zM484 1020l-56 -88l-316 60l112 172z" />
    <glyph glyph-name="Oacute" unicode="&#xd3;" horiz-adv-x="750" 
d="M680 732q116 -89 116 -236q0 -105 -40 -180.5t-105.5 -156.5t-166.5 -134.5t-193 -53.5q-105 0 -180 50t-109.5 135.5t-34.5 171.5q0 154 109.5 278.5t208 167.5t167.5 43q116 0 228 -85zM284 1040l260 144l112 -172l-316 -60zM584 606q-7 -42 -34.5 -84t-66.5 -42
q-20 0 -36.5 17.5t-16.5 51.5q0 67 75 109q-92 0 -118 -55t-26 -92q0 -56 36.5 -85.5t76.5 -29.5q55 0 86 47.5t31 105.5q0 32 -7 57z" />
    <glyph glyph-name="Ocircumflex" unicode="&#xd4;" horiz-adv-x="750" 
d="M680 732q116 -89 116 -236q0 -105 -40 -180.5t-105.5 -156.5t-166.5 -134.5t-193 -53.5q-105 0 -180 50t-109.5 135.5t-34.5 171.5q0 154 109.5 278.5t208 167.5t167.5 43q116 0 228 -85zM392 1164l280 -96l12 -136l-292 96l-276 -84l20 136zM584 606q-7 -42 -34.5 -84
t-66.5 -42q-20 0 -36.5 17.5t-16.5 51.5q0 67 75 109q-92 0 -118 -55t-26 -92q0 -56 36.5 -85.5t76.5 -29.5q55 0 86 47.5t31 105.5q0 32 -7 57z" />
    <glyph glyph-name="Ograve" unicode="&#xd2;" horiz-adv-x="750" 
d="M680 732q116 -89 116 -236q0 -105 -40 -180.5t-105.5 -156.5t-166.5 -134.5t-193 -53.5q-105 0 -180 50t-109.5 135.5t-34.5 171.5q0 154 109.5 278.5t208 167.5t167.5 43q116 0 228 -85zM484 1020l-56 -88l-316 60l112 172zM584 606q-7 -42 -34.5 -84t-66.5 -42
q-20 0 -36.5 17.5t-16.5 51.5q0 67 75 109q-92 0 -118 -55t-26 -92q0 -56 36.5 -85.5t76.5 -29.5q55 0 86 47.5t31 105.5q0 32 -7 57z" />
    <glyph glyph-name="Uacute" unicode="&#xda;" horiz-adv-x="650" 
d="M248 912l-3 -105q0 -200 18 -339.5t36.5 -179.5t46.5 -40q35 0 59 61t24 185q0 16 -4 92.5t-4 105.5l-7 118l-6 82l260 -20q22 -139 22 -320q0 -203 -30 -295t-95.5 -153t-105.5 -84t-125 -23q-140 0 -215 64t-102.5 216.5t-27.5 316.5q0 124 11 202l-84 20l-4 124z
M116 1032l260 144l112 -172l-316 -60z" />
    <glyph glyph-name="Ucircumflex" unicode="&#xdb;" horiz-adv-x="650" 
d="M248 912l-3 -105q0 -200 18 -339.5t36.5 -179.5t46.5 -40q35 0 59 61t24 185q0 16 -4 92.5t-4 105.5l-7 118l-6 82l260 -20q22 -139 22 -320q0 -203 -30 -295t-95.5 -153t-105.5 -84t-125 -23q-140 0 -215 64t-102.5 216.5t-27.5 316.5q0 124 11 202l-84 20l-4 124z
M304 1160l280 -96l12 -136l-292 96l-276 -84l20 136z" />
    <glyph glyph-name="Ugrave" unicode="&#xd9;" horiz-adv-x="650" 
d="M248 912l-3 -105q0 -200 18 -339.5t36.5 -179.5t46.5 -40q35 0 59 61t24 185q0 16 -4 92.5t-4 105.5l-7 118l-6 82l260 -20q22 -139 22 -320q0 -203 -30 -295t-95.5 -153t-105.5 -84t-125 -23q-140 0 -215 64t-102.5 216.5t-27.5 316.5q0 124 11 202l-84 20l-4 124z
M484 1020l-56 -88l-316 60l112 172z" />
    <glyph glyph-name="cedilla" unicode="&#xb8;" horiz-adv-x="600" 
d="M412 27q91 -66 91 -127q0 -81 -89.5 -115.5t-113.5 -40.5l-172 124q74 0 112.5 21.5t38.5 58.5q0 29 -39 67l-60 57l50 3l122 9z" />
  </font>
</defs>
</svg>
